<?xml version="1.0" encoding="utf-8"?>
<!-- Generator: Adobe Illustrator 23.0.0, SVG Export Plug-In . SVG Version: 6.00 Build 0)  -->
<svg version="1.1" id="Capa_1" xmlns="http://www.w3.org/2000/svg" xmlns:xlink="http://www.w3.org/1999/xlink" x="0px" y="0px"
	 viewBox="0 0 286.17 109.76" style="enable-background:new 0 0 286.17 109.76;" xml:space="preserve">
<style type="text/css">
	.st0{fill:none;stroke:#020203;stroke-width:2.3438;stroke-miterlimit:10;}
	.st1{fill:#020203;}
	.st2{fill:none;}
	.st3{fill:none;stroke:#020203;stroke-width:1.7016;stroke-miterlimit:10;}
	.st4{fill:none;stroke:#020203;stroke-width:2.0242;stroke-miterlimit:10;}
	.st5{fill:#004765;}
	.st6{fill:none;stroke:#004765;stroke-width:2.0242;stroke-miterlimit:10;}
</style>
<rect x="-350.11" y="-337.51" class="st2" width="288.37" height="133.86"/>
<text transform="matrix(1 0 0 1 -350.1146 -294.827)"><tspan x="0" y="0" style="font-family:'Ubuntu-Light'; font-size:55px;">Digital </tspan><tspan x="0" y="66" style="font-family:'Ubuntu-Light'; font-size:55px;">Lab</tspan></text>
<g>
	<g>
		<path class="st0" d="M-148.89-304.58l25.9,18.51c3.59,2.57,8.52-0.36,7.98-4.75l-3.89-31.6c-0.47-3.85-5.33-5.25-7.78-2.24
			l-2.79,1.89c-1.15,0.78-2.71,0.43-3.41-0.76l-6.73-11.32l-10.32,6.13l6.79,11.42c0.63,1.07,0.26,2.44-0.82,3.05l-3.19,1.77
			C-150.95-311.76-152.04-306.83-148.89-304.58z"/>
	</g>
</g>
<path class="st1" d="M-119.03-291.47l-2.71-16.53l-13.63,8.38l13.32,9.49c0.31,0.39,0.79,0.65,1.32,0.65c0.94,0,1.69-0.76,1.69-1.69
	c0-0.1-0.01-0.19-0.03-0.28L-119.03-291.47z"/>
<line class="st2" x1="-275.51" y1="-323.09" x2="-272.78" y2="-323.09"/>
<g>
	<g>
		<path class="st1" d="M-103.58-272.07c-4.3-2.5-8.29-4.33-8.33-4.35l-1.15-0.52l-0.24,1.24c-0.01,0.04-0.85,4.36-1.33,9.3
			c-0.65,6.77-0.33,11.48,0.96,13.99c3.14,6.13,10.38,8.71,16.14,5.75s7.89-10.34,4.75-16.47
			C-94.07-265.64-97.71-268.65-103.58-272.07z"/>
	</g>
</g>
<rect x="-374.61" y="-489.17" class="st2" width="168.67" height="133.86"/>
<text transform="matrix(1 0 0 1 -374.6053 -451.1438)"><tspan x="0" y="0" style="font-family:'Ubuntu-Bold'; font-size:49px;">Digital </tspan><tspan x="0" y="58.8" style="font-family:'Ubuntu-Bold'; font-size:49px;">Lab</tspan></text>
<g>
	<g>
		<path class="st3" d="M-271.42-417.43l21.54,8.4c2.99,1.16,5.93-1.78,4.77-4.77l-8.38-21.54c-0.95-2.43-4.16-2.71-5.58-0.71
			l-1.24,1.57l-0.69,0.77c-0.67,0.75-1.83,0.78-2.54,0.07l-6.76-6.77l-6.16,6.16l6.82,6.82c0.64,0.64,0.62,1.67-0.03,2.29
			l-1.63,1.53c-0.2,0.19-0.43,0.33-0.66,0.48C-274.14-421.75-273.91-418.4-271.42-417.43z"/>
	</g>
</g>
<path class="st1" d="M-248.07-413.54l-4.86-11.15l-8.09,8.33l11.07,4.3c0.29,0.22,0.67,0.32,1.05,0.22c0.66-0.17,1.06-0.84,0.89-1.5
	c-0.02-0.07-0.04-0.13-0.07-0.19L-248.07-413.54z"/>
<line class="st2" x1="-92.46" y1="312.19" x2="-89.74" y2="312.19"/>
<g>
	<g>
		<path class="st1" d="M-236.88-408.21c-4.12-0.89-7.81-1.32-7.85-1.32l-1.06-0.12l0.13,1.06c0,0.04,0.45,3.73,1.37,7.84
			c1.25,5.63,2.74,9.33,4.44,11.02c4.14,4.11,10.65,4.3,14.51,0.41c3.87-3.89,3.65-10.4-0.49-14.51
			C-227.53-405.52-231.25-406.99-236.88-408.21z"/>
	</g>
</g>
<rect x="-181.61" y="-493.17" class="st2" width="217.81" height="133.86"/>
<text transform="matrix(1 0 0 1 -158.2709 -455.1443)"><tspan x="0" y="0" style="font-family:'Ubuntu-Bold'; font-size:49px;">DIGITAL</tspan><tspan x="98.64" y="58.8" style="font-family:'Ubuntu-Bold'; font-size:49px;">LAB</tspan></text>
<g>
	<g>
		<path class="st3" d="M-129.7-422.21l21.54,8.4c2.99,1.16,5.93-1.78,4.77-4.77l-8.38-21.54c-0.95-2.43-4.16-2.71-5.58-0.71
			l-1.24,1.57l-0.69,0.77c-0.67,0.75-1.83,0.78-2.54,0.07l-6.76-6.77l-6.16,6.16l6.82,6.82c0.64,0.64,0.62,1.67-0.03,2.29
			l-1.63,1.53c-0.2,0.19-0.43,0.33-0.66,0.48C-132.42-426.54-132.19-423.18-129.7-422.21z"/>
	</g>
</g>
<path class="st1" d="M-106.35-418.32l-4.86-11.15l-8.09,8.33l11.07,4.3c0.29,0.22,0.67,0.32,1.05,0.22c0.66-0.17,1.06-0.84,0.89-1.5
	c-0.02-0.07-0.04-0.13-0.07-0.19L-106.35-418.32z"/>
<g>
	<g>
		<path class="st1" d="M-95.15-413c-4.12-0.89-7.81-1.32-7.85-1.32l-1.06-0.12l0.13,1.06c0,0.04,0.45,3.73,1.37,7.84
			c1.25,5.63,2.74,9.33,4.44,11.02c4.14,4.11,10.65,4.3,14.51,0.41c3.87-3.89,3.65-10.4-0.49-14.51
			C-85.81-410.3-89.52-411.78-95.15-413z"/>
	</g>
</g>
<rect x="-51.8" y="-312.36" class="st2" width="217.81" height="133.86"/>
<text transform="matrix(1 0 0 1 -28.4664 -274.3397)"><tspan x="0" y="0" style="font-family:'Ubuntu-Bold'; font-size:49px;">DIGITAL</tspan><tspan x="98.64" y="45" style="font-family:'Ubuntu-Bold'; font-size:49px;">LAB</tspan></text>
<g>
	<g>
		<path class="st4" d="M171.49-291.26l11.05,25.18c1.53,3.49,6.48,3.49,8.02,0l11.07-25.17c1.25-2.84-1.22-5.78-4.1-5.28l-2.37,0.28
			l-1.23,0.07c-1.19,0.07-2.2-0.88-2.2-2.07l0-11.38l-10.36,0l0,11.47c0,1.07-0.89,1.93-1.96,1.9l-2.66-0.08
			c-0.33-0.01-0.64-0.08-0.96-0.15C172.85-297.18,170.22-294.17,171.49-291.26z"/>
	</g>
</g>
<path class="st1" d="M187.87-268.34l5.29-13.46l-13.82,0.2l5.69,12.93c0.06,0.43,0.3,0.83,0.7,1.07c0.69,0.41,1.59,0.19,2.01-0.51
	c0.04-0.07,0.07-0.15,0.1-0.22L187.87-268.34z"/>
<g>
	<g>
		<path class="st1" d="M192.8-254.45c-2.71-4.21-5.46-7.68-5.49-7.72l-0.79-1l-0.79,1c-0.03,0.03-2.76,3.52-5.45,7.75
			c-3.68,5.78-5.54,10.16-5.54,13c0.02,6.94,5.34,12.57,11.86,12.55c6.52-0.02,11.82-5.68,11.8-12.62
			C198.4-244.32,196.51-248.69,192.8-254.45z"/>
	</g>
</g>
<g>
	<g>
		<path class="st5" d="M61.58,32.78c0,2.94-0.46,5.5-1.37,7.69c-0.92,2.19-2.21,4-3.9,5.44c-1.68,1.44-3.73,2.52-6.15,3.23
			c-2.42,0.72-5.13,1.08-8.13,1.08c-1.37,0-2.97-0.06-4.8-0.17c-1.83-0.11-3.63-0.35-5.39-0.71V16.27c1.76-0.33,3.6-0.55,5.51-0.66
			c1.91-0.11,3.55-0.17,4.92-0.17c2.91,0,5.54,0.33,7.91,0.98c2.37,0.65,4.4,1.68,6.1,3.09c1.7,1.41,3,3.2,3.92,5.39
			C61.12,27.08,61.58,29.71,61.58,32.78z M39.48,43.56c0.36,0.03,0.78,0.06,1.25,0.07c0.47,0.02,1.04,0.02,1.69,0.02
			c3.82,0,6.66-0.96,8.5-2.89c1.84-1.93,2.77-4.59,2.77-7.99c0-3.56-0.88-6.26-2.65-8.08c-1.76-1.83-4.56-2.74-8.38-2.74
			c-0.52,0-1.06,0.01-1.62,0.02c-0.56,0.02-1.08,0.06-1.57,0.12V43.56z"/>
		<path class="st5" d="M67.95,15.83h7.64v33.96h-7.64V15.83z"/>
		<path class="st5" d="M100,21.71c-3.56,0-6.13,0.99-7.72,2.96c-1.58,1.98-2.38,4.68-2.38,8.11c0,1.67,0.2,3.18,0.59,4.53
			c0.39,1.36,0.98,2.52,1.76,3.5s1.76,1.74,2.94,2.28c1.18,0.54,2.55,0.81,4.12,0.81c0.85,0,1.58-0.02,2.18-0.05
			c0.6-0.03,1.13-0.1,1.59-0.2V31.85h7.64v16.81c-0.92,0.36-2.38,0.74-4.41,1.15c-2.03,0.41-4.53,0.61-7.5,0.61
			c-2.55,0-4.86-0.39-6.93-1.18c-2.08-0.78-3.85-1.93-5.32-3.43c-1.47-1.5-2.61-3.35-3.41-5.54c-0.8-2.19-1.2-4.69-1.2-7.5
			c0-2.84,0.44-5.36,1.32-7.55c0.88-2.19,2.09-4.04,3.63-5.56c1.54-1.52,3.34-2.67,5.41-3.45s4.29-1.18,6.64-1.18
			c1.6,0,3.05,0.11,4.34,0.32c1.29,0.21,2.4,0.46,3.33,0.73c0.93,0.28,1.7,0.56,2.3,0.86s1.04,0.52,1.3,0.69l-2.21,6.13
			c-1.05-0.56-2.25-1.04-3.6-1.45C103.07,21.91,101.6,21.71,100,21.71z"/>
		<path class="st5" d="M117.83,15.83h7.64v33.96h-7.64V15.83z"/>
		<path class="st5" d="M158.5,15.83v6.52h-10.24v27.44h-7.64V22.35h-10.24v-6.52H158.5z"/>
		<path class="st5" d="M182.17,49.78c-0.38-1.18-0.78-2.39-1.22-3.64c-0.44-1.24-0.87-2.48-1.3-3.71h-13.26
			c-0.43,1.24-0.86,2.48-1.29,3.73c-0.43,1.24-0.83,2.45-1.2,3.63h-7.94c1.28-3.66,2.49-7.04,3.64-10.14
			c1.15-3.1,2.27-6.03,3.37-8.77s2.18-5.35,3.24-7.82c1.06-2.47,2.17-4.88,3.32-7.23h7.25c1.12,2.35,2.21,4.76,3.3,7.23
			c1.08,2.47,2.17,5.07,3.27,7.82s2.22,5.67,3.37,8.77c1.15,3.1,2.36,6.48,3.64,10.14H182.17z M172.98,23.52
			c-0.17,0.49-0.42,1.16-0.75,2.01c-0.33,0.85-0.7,1.83-1.12,2.94c-0.42,1.11-0.89,2.34-1.41,3.68c-0.52,1.34-1.04,2.74-1.58,4.21
			h9.71c-0.52-1.47-1.02-2.88-1.51-4.22c-0.49-1.34-0.95-2.57-1.39-3.68c-0.44-1.11-0.82-2.09-1.15-2.94
			C173.45,24.67,173.18,24,172.98,23.52z"/>
		<path class="st5" d="M217.4,43.22v6.57h-22.69V15.83h7.64v27.39H217.4z"/>
		<path class="st5" d="M147.62,88.22v6.57h-22.69V60.83h7.64v27.39H147.62z"/>
		<path class="st5" d="M176.82,94.78c-0.38-1.18-0.78-2.39-1.22-3.64c-0.44-1.24-0.87-2.48-1.3-3.71h-13.26
			c-0.43,1.24-0.86,2.48-1.29,3.73c-0.43,1.24-0.83,2.45-1.2,3.63h-7.94c1.28-3.66,2.49-7.04,3.64-10.14
			c1.15-3.1,2.27-6.03,3.37-8.77s2.18-5.35,3.24-7.82c1.06-2.47,2.17-4.88,3.32-7.23h7.25c1.12,2.35,2.21,4.76,3.3,7.23
			c1.08,2.47,2.17,5.07,3.27,7.82s2.22,5.67,3.37,8.77c1.15,3.1,2.36,6.48,3.64,10.14H176.82z M167.64,68.52
			c-0.17,0.49-0.42,1.16-0.75,2.01c-0.33,0.85-0.7,1.83-1.12,2.94c-0.42,1.11-0.89,2.34-1.41,3.68c-0.52,1.34-1.04,2.74-1.58,4.21
			h9.71c-0.52-1.47-1.02-2.88-1.51-4.22c-0.49-1.34-0.95-2.57-1.39-3.68c-0.44-1.11-0.82-2.09-1.15-2.94
			C168.11,69.67,167.84,69,167.64,68.52z"/>
		<path class="st5" d="M200.69,95.23c-1.86,0-3.72-0.06-5.56-0.17c-1.85-0.11-3.77-0.38-5.76-0.81V61.32
			c1.57-0.29,3.28-0.51,5.15-0.66c1.86-0.15,3.59-0.22,5.19-0.22c2.16,0,4.14,0.16,5.95,0.47c1.81,0.31,3.37,0.84,4.68,1.59
			c1.31,0.75,2.33,1.74,3.06,2.96c0.73,1.23,1.1,2.74,1.1,4.53c0,2.71-1.31,4.85-3.92,6.42c2.16,0.82,3.63,1.93,4.41,3.33
			c0.78,1.4,1.18,2.99,1.18,4.75c0,3.56-1.3,6.24-3.9,8.04C209.68,94.33,205.82,95.23,200.69,95.23z M196.82,74.16h3.72
			c2.35,0,4.03-0.3,5.05-0.91c1.01-0.6,1.52-1.58,1.52-2.92c0-1.37-0.52-2.33-1.57-2.89c-1.05-0.56-2.58-0.83-4.61-0.83
			c-0.65,0-1.36,0.01-2.11,0.02c-0.75,0.02-1.42,0.06-2.01,0.12V74.16z M196.82,79.99v8.77c0.55,0.07,1.16,0.11,1.81,0.15
			c0.65,0.03,1.37,0.05,2.16,0.05c2.29,0,4.13-0.33,5.54-0.98c1.4-0.65,2.11-1.86,2.11-3.63c0-1.57-0.59-2.69-1.76-3.36
			c-1.18-0.67-2.86-1-5.05-1H196.82z"/>
	</g>
	<g>
		<g>
			<path class="st6" d="M223.86,32.87l11.05,25.18c1.53,3.49,6.48,3.49,8.02,0L254,32.88c1.25-2.84-1.22-5.78-4.1-5.28l-2.37,0.28
				l-1.23,0.07c-1.19,0.07-2.2-0.88-2.2-2.07l0-11.38l-10.36,0l0,11.47c0,1.07-0.89,1.93-1.96,1.9l-2.66-0.08
				c-0.33-0.01-0.64-0.08-0.96-0.15C225.21,26.94,222.58,29.96,223.86,32.87z"/>
		</g>
	</g>
	<path class="st5" d="M240.23,55.78l5.29-13.46l-13.82,0.2l5.69,12.93c0.06,0.43,0.3,0.83,0.7,1.07c0.69,0.41,1.59,0.19,2.01-0.51
		c0.04-0.07,0.07-0.15,0.1-0.22L240.23,55.78z"/>
	<g>
		<g>
			<path class="st5" d="M244.39,72.9c-2.37-3.68-4.77-6.71-4.8-6.74l-0.69-0.87l-0.69,0.87c-0.02,0.03-2.41,3.08-4.76,6.77
				c-3.22,5.05-4.85,8.88-4.84,11.36c0.02,6.06,4.67,10.99,10.37,10.97c5.7-0.01,10.33-4.96,10.31-11.02
				C249.28,81.75,247.63,77.94,244.39,72.9z"/>
		</g>
	</g>
</g>
</svg>
