<?xml version="1.0" encoding="utf-8"?>
<!-- Generator: Adobe Illustrator 23.0.0, SVG Export Plug-In . SVG Version: 6.00 Build 0)  -->
<svg version="1.1" id="Capa_1" xmlns="http://www.w3.org/2000/svg" xmlns:xlink="http://www.w3.org/1999/xlink" x="0px" y="0px"
	 viewBox="0 0 50.96 109.76" style="enable-background:new 0 0 50.96 109.76;" xml:space="preserve">
<style type="text/css">
	.st0{fill:none;}
	.st1{fill:none;stroke:#020203;stroke-width:2.3438;stroke-miterlimit:10;}
	.st2{fill:#020203;}
	.st3{fill:none;stroke:#020203;stroke-width:1.7016;stroke-miterlimit:10;}
	.st4{fill:none;stroke:#020203;stroke-width:2.0242;stroke-miterlimit:10;}
	.st5{fill:none;stroke:#004765;stroke-width:2.0242;stroke-miterlimit:10;}
	.st6{fill:#004765;}
</style>
<rect x="-570.65" y="-333.08" class="st0" width="288.37" height="133.86"/>
<text transform="matrix(1 0 0 1 -570.6496 -290.4016)" style="font-family:'Ubuntu-Light'; font-size:55px;">Digital </text>
<text transform="matrix(1 0 0 1 -570.6496 -224.4016)" style="font-family:'Ubuntu-Light'; font-size:55px;">Lab</text>
<g>
	<g>
		<path class="st1" d="M-369.43-300.15l25.9,18.51c3.59,2.57,8.52-0.36,7.98-4.75l-3.89-31.6c-0.47-3.85-5.33-5.25-7.78-2.24
			l-2.79,1.89c-1.15,0.78-2.71,0.43-3.41-0.76l-6.73-11.32l-10.32,6.13l6.79,11.42c0.63,1.07,0.26,2.44-0.82,3.05l-3.19,1.77
			C-371.49-307.34-372.58-302.4-369.43-300.15z"/>
	</g>
</g>
<path class="st2" d="M-339.57-287.04l-2.71-16.53l-13.63,8.38l13.32,9.49c0.31,0.39,0.79,0.65,1.32,0.65c0.94,0,1.69-0.76,1.69-1.69
	c0-0.1-0.01-0.19-0.03-0.28L-339.57-287.04z"/>
<line class="st0" x1="-496.05" y1="-318.66" x2="-493.32" y2="-318.66"/>
<g>
	<g>
		<path class="st2" d="M-324.12-267.64c-4.3-2.5-8.29-4.33-8.33-4.35l-1.15-0.52l-0.24,1.24c-0.01,0.04-0.85,4.36-1.33,9.3
			c-0.65,6.77-0.33,11.48,0.96,13.99c3.14,6.13,10.38,8.71,16.14,5.75s7.89-10.34,4.75-16.47
			C-314.61-261.21-318.25-264.22-324.12-267.64z"/>
	</g>
</g>
<rect x="-595.15" y="-484.74" class="st0" width="168.67" height="133.86"/>
<text transform="matrix(1 0 0 1 -595.1403 -446.7184)" style="font-family:'Ubuntu-Bold'; font-size:49px;">Digital </text>
<text transform="matrix(1 0 0 1 -595.1403 -387.9184)" style="font-family:'Ubuntu-Bold'; font-size:49px;">Lab</text>
<g>
	<g>
		<path class="st3" d="M-491.96-413l21.54,8.4c2.99,1.16,5.93-1.78,4.77-4.77l-8.38-21.54c-0.95-2.43-4.16-2.71-5.58-0.71
			l-1.24,1.57l-0.69,0.77c-0.67,0.75-1.83,0.78-2.54,0.07l-6.76-6.77l-6.16,6.16l6.82,6.82c0.64,0.64,0.62,1.67-0.03,2.29
			l-1.63,1.53c-0.2,0.19-0.43,0.33-0.66,0.48C-494.68-417.32-494.45-413.97-491.96-413z"/>
	</g>
</g>
<path class="st2" d="M-468.61-409.11l-4.86-11.15l-8.09,8.33l11.07,4.3c0.29,0.22,0.67,0.32,1.05,0.22c0.66-0.17,1.06-0.84,0.89-1.5
	c-0.02-0.07-0.04-0.13-0.07-0.19L-468.61-409.11z"/>
<line class="st0" x1="-313" y1="316.62" x2="-310.28" y2="316.62"/>
<g>
	<g>
		<path class="st2" d="M-457.42-403.78c-4.12-0.89-7.81-1.32-7.85-1.32l-1.06-0.12l0.13,1.06c0,0.04,0.45,3.73,1.37,7.84
			c1.25,5.63,2.74,9.33,4.44,11.02c4.14,4.11,10.65,4.3,14.51,0.41c3.87-3.89,3.65-10.4-0.49-14.51
			C-448.07-401.09-451.79-402.56-457.42-403.78z"/>
	</g>
</g>
<rect x="-402.15" y="-488.74" class="st0" width="217.81" height="133.86"/>
<text transform="matrix(1 0 0 1 -378.8059 -450.7189)" style="font-family:'Ubuntu-Bold'; font-size:49px;">DIGITAL</text>
<text transform="matrix(1 0 0 1 -280.1659 -391.9189)" style="font-family:'Ubuntu-Bold'; font-size:49px;">LAB</text>
<g>
	<g>
		<path class="st3" d="M-350.24-417.78l21.54,8.4c2.99,1.16,5.93-1.78,4.77-4.76l-8.38-21.54c-0.95-2.43-4.16-2.71-5.58-0.71
			l-1.24,1.57l-0.69,0.77c-0.67,0.75-1.83,0.78-2.54,0.07l-6.76-6.77l-6.16,6.16l6.82,6.82c0.64,0.64,0.62,1.67-0.03,2.29
			l-1.63,1.53c-0.2,0.19-0.43,0.33-0.66,0.48C-352.96-422.11-352.73-418.75-350.24-417.78z"/>
	</g>
</g>
<path class="st2" d="M-326.89-413.89l-4.86-11.15l-8.09,8.33l11.07,4.3c0.29,0.22,0.67,0.32,1.05,0.22c0.66-0.17,1.06-0.84,0.89-1.5
	C-326.85-413.76-326.87-413.82-326.89-413.89L-326.89-413.89z"/>
<g>
	<g>
		<path class="st2" d="M-315.69-408.57c-4.12-0.89-7.81-1.32-7.85-1.32l-1.06-0.12l0.13,1.06c0,0.04,0.45,3.73,1.37,7.84
			c1.25,5.63,2.74,9.33,4.44,11.02c4.14,4.11,10.65,4.3,14.51,0.41c3.86-3.89,3.65-10.4-0.49-14.51
			C-306.35-405.87-310.06-407.35-315.69-408.57z"/>
	</g>
</g>
<rect x="-272.34" y="-307.93" class="st0" width="217.81" height="133.86"/>
<text transform="matrix(1 0 0 1 -249.0014 -269.9144)" style="font-family:'Ubuntu-Bold'; font-size:49px;">DIGITAL</text>
<text transform="matrix(1 0 0 1 -150.3615 -224.9144)" style="font-family:'Ubuntu-Bold'; font-size:49px;">LAB</text>
<g>
	<g>
		<path class="st4" d="M-49.05-286.83L-38-261.65c1.53,3.49,6.48,3.49,8.02,0l11.07-25.17c1.25-2.84-1.22-5.78-4.1-5.28l-2.37,0.28
			l-1.23,0.07c-1.19,0.07-2.2-0.88-2.2-2.07v-11.38h-10.36v11.47c0,1.07-0.89,1.93-1.96,1.9l-2.66-0.08
			c-0.33-0.01-0.64-0.08-0.96-0.15C-47.69-292.76-50.32-289.74-49.05-286.83z"/>
	</g>
</g>
<path class="st2" d="M-32.67-263.92l5.29-13.46l-13.82,0.2l5.69,12.93c0.06,0.43,0.3,0.83,0.7,1.07c0.69,0.41,1.59,0.19,2.01-0.51
	c0.04-0.07,0.07-0.15,0.1-0.22L-32.67-263.92z"/>
<g>
	<g>
		<path class="st2" d="M-27.74-250.02c-2.71-4.21-5.46-7.68-5.49-7.72l-0.79-1l-0.79,1c-0.03,0.03-2.76,3.52-5.45,7.75
			c-3.68,5.78-5.54,10.16-5.54,13c0.02,6.94,5.34,12.57,11.86,12.55s11.82-5.68,11.8-12.62C-22.14-239.89-24.03-244.26-27.74-250.02
			z"/>
	</g>
</g>
<g>
	<g>
		<g>
			<path class="st5" d="M10.41,37.3l11.05,25.18c1.53,3.49,6.48,3.49,8.02,0l11.07-25.17c1.25-2.84-1.22-5.78-4.1-5.28l-2.37,0.28
				l-1.23,0.07c-1.19,0.07-2.2-0.88-2.2-2.07V18.93H20.29V30.4c0,1.07-0.89,1.93-1.96,1.9l-2.66-0.08
				c-0.33-0.01-0.64-0.08-0.96-0.15C11.77,31.37,9.14,34.38,10.41,37.3z"/>
		</g>
	</g>
	<path class="st6" d="M27.1,60.21l5.29-13.46l-13.82,0.2l5.69,12.93c0.06,0.43,0.3,0.83,0.7,1.07c0.69,0.41,1.59,0.19,2.01-0.51
		c0.04-0.07,0.07-0.15,0.1-0.22L27.1,60.21z"/>
	<g>
		<g>
			<path class="st6" d="M30.92,77.33c-2.37-3.68-4.77-6.71-4.8-6.74l-0.69-0.87l-0.69,0.87c-0.02,0.03-2.41,3.08-4.76,6.77
				c-3.22,5.05-4.85,8.88-4.84,11.36c0.02,6.06,4.67,10.99,10.37,10.97s10.33-4.96,10.31-11.02C35.81,86.18,34.16,82.37,30.92,77.33
				z"/>
		</g>
	</g>
</g>
</svg>
